<svg xmlns="http://www.w3.org/2000/svg" viewBox="0 0 784.3 99.51"><defs><style>.cls-1{fill-rule:evenodd;}</style></defs><title>logo</title><g id="Layer_2" data-name="Layer 2"><g id="Layer_1-2" data-name="Layer 1"><path class="cls-1" d="M784.29,52.93c0-10,.17-20.08-.64-30C782.57,9.56,773.37,1,760,.39c-9.13-.44-28.56-.17-29.22,0V99c.66.12,20.09.4,29.22,0,13.41-.65,22.45-9.14,23.69-22.48C784.4,68.68,784.31,60.79,784.29,52.93Zm-16,17.79A14.45,14.45,0,0,1,755.07,85c-2.78.18-5.59,0-8.53,0V14c4.23.31,8.4.18,12.37,1,5.76,1.19,9.29,5.84,9.41,12.68C768.56,42,768.6,56.38,768.33,70.72Z"/><path class="cls-1" d="M702.26,14.13C697.78,3.35,688.27,0,677,.17c-14.67.16-25.25,9.07-25.74,23.22-.6,17.31-.56,34.66,0,52,.4,13.45,8.52,21.84,22.2,23.52,17.27,2.12,30.07-5.82,31.38-23.49.62-8.43.57-38.58.07-45.22C704.45,24.83,704.3,19,702.26,14.13ZM689.37,74.64c-.1,6.68-5.16,10.8-11.75,10.59s-11-4.44-11.15-11.26c-.2-8.09,0-16.19,0-24.29h0c0-8-.14-16,0-24s5.84-12.54,14.07-11.27a10.08,10.08,0,0,1,8.86,10.23C689.59,41.31,689.63,58,689.37,74.64Z"/><path class="cls-1" d="M410.84,8c-6-6.69-14.06-8.1-22.78-7.81-12.9.43-23.45,10.55-23.86,23.24-.57,17.54-.31,35.11,0,52.67a23.14,23.14,0,0,0,7.63,16.81c5.58,5.22,12.5,6.46,19.88,6.4,14.32-.12,24.44-9,25.31-23,.54-8.74.81-40.44.59-47.5C417.34,21.28,416.22,14,410.84,8Zm-8.92,65.9c-.2,8.14-5.87,12.52-14,11.13-5-.85-8.59-4.87-8.65-10.7-.19-16.4-.22-32.82,0-49.22.09-6.88,4.89-11.08,11.56-11,6.52.08,10.89,4.27,11,11.14.2,8.2.05,16.4.05,24.6h0C402,57.89,402.12,65.9,401.92,73.91Z"/><path class="cls-1" d="M443.42.27c.12,30.69.07,68,.08,98.67,0,.68-.14.24.33.25,4.68.11,10.41.07,15.4.07l-.09-39.77h22.14l.06-15.24H459.18l0-30.21h30V.16Z"/><path class="cls-1" d="M625,45.35H597.4V58l13,0c.44,4,.37,22.37.37,26.35A18.39,18.39,0,0,1,594.87,87c-8.06-2.53-8-9.63-8.38-17.7-.43-9.77-.64-15.52-.78-25.29-.1-6.1-.1-12.2.23-18.28s4-10,9-10.63c6.71-.83,11.44,2.44,12.77,9.12.65,3.28.84,6.64,1.24,10.05H625c-.27-3.61-.91-7-1.37-10.29-1.28-9.31-5-17.41-14.33-21.12C598.88-1.32,588.16-1,578.82,6.48a18.13,18.13,0,0,0-5.2,6.68,43.55,43.55,0,0,0-3.51,15.94c-.43,11.9-.41,23.83-.11,35.73a80,80,0,0,0,2.13,16.36c2.52,10.71,10.2,16.56,20.82,17.88,23.62,2.93,32-9.81,32-9.81Z"/><path class="cls-1" d="M161.32.1C156,28,150.25,58.6,144.83,86.5c-.81,4.18-1.56,8.37-2.36,12.74h15.11c1.39-7.18,2.77-14.34,4.14-21.43H183c1.43,7.11,2.85,14.19,4.29,21.33h16C196.48,66,189.75,33.07,183,0,176.64,0,161.32.1,161.32.1Zm2.88,63.36,7.71-42.8h.52l7.95,42.8Z"/><path class="cls-1" d="M71.55,99.14h45.11V85.07H87.12V59.6h21.67l0-15.26c-6.32,0-15.6.07-22,.07,0,0,.11-28.33.21-30.24h29.63V.19H71.55Z"/><polygon class="cls-1" points="0 99.13 15.48 99.13 15.48 59.6 37.67 59.6 37.63 44.37 15.58 44.37 15.62 14.22 45.79 14.22 45.79 0.28 0 0.28 0 99.13"/><path class="cls-1" d="M268.39,54.24c7.71-3.26,12.66-9.94,13.56-19,.72-7.38.78-5.22,0-14.64C280.84,8,271.65.16,258.24.16c-9.35,0-28.55-.12-29.2,0V99.27h15.39V59.12c2.31,0,9.07-.11,9.07-.11,3.79,12,9.31,28.4,13.26,40.31,0,0,11.1.05,16.52.05-4.7-14.33-10.53-32-14.84-45.12Zm-1.79-21.8c-.14,7-5.85,10.34-13.25,10.79-2.79.17-5.6,0-8.54,0V12.6c5,0,8.41-.22,12.37.56,5.77,1.13,9.3,3.3,9.41,9.76C266.63,24.89,266.63,30.85,266.6,32.44Z"/></g></g></svg>